<?xml version="1.0" encoding="UTF-8" standalone="no"?><!DOCTYPE svg PUBLIC "-//W3C//DTD SVG 1.1//EN" "http://www.w3.org/Graphics/SVG/1.1/DTD/svg11.dtd"><svg width="100%" height="100%" viewBox="0 0 400 400" version="1.1" xmlns="http://www.w3.org/2000/svg" xmlns:xlink="http://www.w3.org/1999/xlink" xml:space="preserve" xmlns:serif="http://www.serif.com/" style="fill-rule:evenodd;clip-rule:evenodd;stroke-linecap:round;stroke-linejoin:bevel;stroke-miterlimit:1.5;"><path d="M307.664,348.915l0,-138.356l-97.676,41.21l0,141.826l95.925,-43.21l-96.275,45.14l-112.074,-36.907l0.74,-96.927l71.157,23.631l39.338,-34.322l-0.929,-0.282l-38.617,33.285l-118.63,-39.156l46.45,-26.376l-32.114,-47.997c0,0 6.139,-5.92 107.009,-23.074l31.207,39.544l20.694,-43.382c0,0 101.948,14.611 109.626,18.464l-15.526,28.982l31.205,-9.438l0.203,2.147l-39.518,25.451l37.761,-25.749l-98.549,33.716l-39.181,32.83l-110.88,-31.351l102.698,-30.912l80.577,17.49" style="fill:none;stroke:#c0c0c0;stroke-width:4px;"/><g><path d="M201.804,43.986l0,-38.32" style="fill:none;stroke:#fff;stroke-width:2px;"/><path d="M21.625,180.186l39.562,0" style="fill:none;stroke:#fff;stroke-width:2px;"/><path d="M102.373,83.878l-27.975,-27.096" style="fill:none;stroke:#fff;stroke-width:2px;"/><path d="M301.235,83.878l27.975,-27.096" style="fill:none;stroke:#fff;stroke-width:2px;"/><path d="M147.031,54.743l-15.41,-35.293" style="fill:none;stroke:#fff;stroke-width:2px;"/><path d="M331.315,127.133l36.437,-14.926" style="fill:none;stroke:#fff;stroke-width:2px;"/><path d="M71.496,128.998l-36.662,-14.402" style="fill:none;stroke:#fff;stroke-width:2px;"/><path d="M254.652,53.971l14.868,-35.511" style="fill:none;stroke:#fff;stroke-width:2px;"/><path d="M174.104,46.654l-7.794,-37.568" style="fill:none;stroke:#fff;stroke-width:2px;"/><path d="M339.665,153.355l38.787,-7.548" style="fill:none;stroke:#fff;stroke-width:2px;"/><path d="M25.155,214.565l38.788,-7.549" style="fill:none;stroke:#fff;stroke-width:2px;"/><path d="M84.734,104.737l-32.937,-21.228" style="fill:none;stroke:#fff;stroke-width:2px;"/><path d="M279.7,66.793l21.915,-31.903" style="fill:none;stroke:#fff;stroke-width:2px;"/><path d="M122.592,67.652l-22.286,-31.662" style="fill:none;stroke:#fff;stroke-width:2px;"/><path d="M317.987,103.462l32.688,-21.586" style="fill:none;stroke:#fff;stroke-width:2px;"/><path d="M63.639,154.864l-38.873,-7.124" style="fill:none;stroke:#fff;stroke-width:2px;"/><path d="M227.947,46.36l7.355,-37.651" style="fill:none;stroke:#fff;stroke-width:2px;"/></g><path d="M203.467,187.402c-5.418,5.765 -16.809,7.047 -21.726,6.473c-10.618,-1.239 -12.37,-3.9 -17.491,-6.969c-5.052,-3.028 -15.163,1.885 -16.513,9.192c0,0 2.493,-12.122 16.496,-9.637c0,0 -13.711,-12.806 -5.52,-29.476c0,0 0.579,4.906 -9.505,5.444c-10.592,0.565 -20.616,-12.13 -7.443,-27.541c10.974,-12.84 31.334,-7.254 31.334,-7.254c0,0 -6.478,-11.464 2.556,-20.589c0,0 -10.181,14.124 0.506,21.703c0,0 17.538,2.951 21.66,20.443c0,0 -15.027,-0.468 -20.657,7.385c0,0 18.209,-17.976 41.192,5.544c0,0 -10.636,-14.42 5.008,-27.095c0,0 -15.653,10.596 -2.324,30.499c0,0 7.349,8.827 7.702,20.895c0.353,12.069 -8.505,23.231 -16.742,29.018c-8.237,5.787 -19.25,5.606 -20.84,5.551c-1.002,-0.035 3.847,-13.401 1.383,-8.328c-2.463,5.072 -12.482,18.44 -29.95,13.734c0,0 -11.313,-2.446 -17.372,-13.883c0,0 7.311,10.087 -2.586,8.654c-9.896,-1.432 -24.532,-4.998 -25.95,-24.111c0,0 -2.332,-8.766 5.687,-19.685c0,0 -3.334,9.701 -14.963,-7.7c-11.94,-17.865 -5.117,-60.063 35.682,-62.557c0,0 -4.265,-0.293 -8.225,0.536c-3.959,0.83 0.833,-12.994 15.867,-20.448c15.034,-7.453 29.246,-5.564 38.608,0.738c0,0 -6.541,8.897 -3.73,6.318c2.811,-2.58 8.931,-17.394 27.539,-20.178c24.007,-3.592 34.873,10.975 38.264,23.946c0,0 -1.479,-8.816 -0.784,-9.467c12.637,-11.843 32.454,5.822 32.175,26.222l0.321,9.104c0,0 14.12,15.382 7.189,34.495c-6.931,19.113 -35.229,23.12 -42.662,18.85c0,0 -3.368,1.943 2.33,-8.069c5.698,-10.013 2.75,-38.89 -9.314,-47.897c0,0 12.999,-8.149 22.881,4.304c0,0 -5.69,-12.119 -24.035,-5.41c0,0 -9.702,-11.511 -21.991,-10.608c0,0 -9,-9.233 0.152,-17.204c0,0 -8.85,6.342 -1.678,16.884c0,0 -12.045,1.213 -21.528,12.1c0,0 20.878,-21.624 39.969,-4.875c0,0 14.358,11.096 17.286,28.636c2.928,17.54 -6.107,29.528 -10.027,34.948c0,0 -4.596,5.148 -8.771,5.349" style="fill:none;stroke:#000;stroke-width:5.5px;stroke-linejoin:round;"/></svg>