<?xml version="1.0" encoding="UTF-8" standalone="no"?><!DOCTYPE svg PUBLIC "-//W3C//DTD SVG 1.1//EN" "http://www.w3.org/Graphics/SVG/1.1/DTD/svg11.dtd">

<svg width="100%" height="100%" viewBox="0 0 400 400" version="1.1" xmlns="http://www.w3.org/2000/svg" xmlns:xlink="http://www.w3.org/1999/xlink" xml:space="preserve" xmlns:serif="http://www.serif.com/">

	<circle class="clock" cx="199.324" cy="113.723" r="88.24"/>

	<g class="hour">
		<path d="M199.324,113.494l0,-69.575"/><path d="M199.393,113.503l18.007,-67.204"/><path d="M199.457,113.529l34.788,-60.253"/><path d="M199.512,113.572l49.197,-49.197"/><path d="M199.554,113.627l60.254,-34.788"/><path d="M199.581,113.691l67.204,-18.007"/><path d="M199.59,113.76l69.575,0"/><path d="M199.581,113.829l67.204,18.007"/><path d="M199.554,113.893l60.254,34.787"/><path d="M199.512,113.948l49.197,49.197"/><path d="M199.457,113.99l34.788,60.254"/><path d="M199.393,114.017l18.007,67.204"/><path d="M199.324,183.601l0,-69.575"/><path d="M181.248,181.221l18.007,-67.204"/><path d="M164.404,174.244l34.787,-60.254"/><path d="M149.939,163.145l49.197,-49.197"/><path d="M138.84,148.68l60.254,-34.787"/><path d="M131.863,131.836l67.204,-18.007"/><path d="M129.483,113.76l69.575,0"/><path d="M131.863,95.684l67.204,18.007"/><path d="M138.84,78.839l60.254,34.788"/><path d="M149.939,64.375l49.197,49.197"/><path d="M164.404,53.276l34.787,60.253"/><path d="M181.248,46.299l18.007,67.204"/>
	</g>
	<g class="minute">
		<path d="M199.324,113.494l0,-69.575"/><path d="M199.393,113.503l18.007,-67.204"/><path d="M199.457,113.529l34.788,-60.253"/><path d="M199.512,113.572l49.197,-49.197"/><path d="M199.554,113.627l60.254,-34.788"/><path d="M199.581,113.691l67.204,-18.007"/><path d="M199.59,113.76l69.575,0"/><path d="M199.581,113.829l67.204,18.007"/><path d="M199.554,113.893l60.254,34.787"/><path d="M199.512,113.948l49.197,49.197"/><path d="M199.457,113.99l34.788,60.254"/><path d="M199.393,114.017l18.007,67.204"/><path d="M199.324,183.601l0,-69.575"/><path d="M181.248,181.221l18.007,-67.204"/><path d="M164.404,174.244l34.787,-60.254"/><path d="M149.939,163.145l49.197,-49.197"/><path d="M138.84,148.68l60.254,-34.787"/><path d="M131.863,131.836l67.204,-18.007"/><path d="M129.483,113.76l69.575,0"/><path d="M131.863,95.684l67.204,18.007"/><path d="M138.84,78.839l60.254,34.788"/><path d="M149.939,64.375l49.197,49.197"/><path d="M164.404,53.276l34.787,60.253"/><path d="M181.248,46.299l18.007,67.204"/>
	</g>

	

	<path class="seedling" d="M208.595,333.587c0,0 4.592,0.555 4.088,-5.725c-0.505,-6.296 -8.234,-68.832 -4.423,-75.894c2.707,-5.016 7.101,-17.151 11.305,-14.454c2.329,1.493 27.386,16.748 64.733,-2.807c30.087,-15.755 43.719,-45.111 50.628,-53.489c6.397,-7.758 9.244,-8.454 5.436,-10.154c-3.808,-1.7 -36.161,-12.681 -64.615,-6.796c-28.454,5.885 -56.474,23.209 -60.368,51.879c0,0 -0.323,11.995 4.592,8.671c6.664,-4.507 32.405,-38.564 83.734,-44.348c0,0 3.921,0.255 -4.009,2.493c-7.931,2.238 -37.768,10.718 -62.208,31.697c0,0 -16.413,11.248 -9.49,19.149c4.444,5.071 36.433,6.948 60.57,-12.257c22.924,-18.239 33.623,-33.056 44.02,-45.335c0,0 5.114,-4.548 -2.714,5.941c-8.428,11.292 -31.759,39.196 -48.359,48.175c-16.711,9.039 -39.011,13.019 -54.71,6.261c-2.447,-1.115 -3.822,-3.752 -3.335,-6.397c0.531,-2.759 0.551,-5.345 -2.505,-2.049c-6.189,6.671 -6.638,-2.958 -7.273,-1.637c-0.79,1.645 -0.681,9.486 -3.242,14.238c-2.664,4.945 -6.407,8.068 -12.028,6.228c-3.938,-1.289 -6.035,-6.702 -10.127,-13.143c0,0 -2.797,-2.389 -4.203,-18.864c-1.269,-14.884 -15.157,-33.39 -39.754,-38.491c-27.986,-5.803 -44.236,-3.492 -57.827,-1.495c-12.699,1.865 -29.658,7.397 -19.903,9.95c9.947,2.603 19.856,15.983 27.007,25.992c7.152,10.008 25.303,24.598 40.746,29.79c15.444,5.193 25.623,4.942 34.339,2.811c8.834,-2.159 12.147,-7.601 10.723,-11.083c-1.811,-4.429 -26.066,-27.279 -50.03,-35.649c-22.915,-8.003 -33.027,-10.436 -25.39,-8.972c8.533,1.635 20.537,1.424 45.85,14.993c15.977,8.564 42.426,32.747 32.723,34.66c0,0 3.982,1.001 8.683,8.334c6.51,10.156 3.075,27.869 2.366,44.991c-0.604,14.603 -3.666,38.97 -1.906,40.893c1.209,1.322 5.099,1.973 5.099,1.973c0,0 -8.666,0.722 -8.547,3.861c0.18,4.719 7.851,-0.956 8.864,5.575c1.013,6.53 -10.863,16.96 -11.54,11.485c-0.652,-5.269 2.269,-11.708 -4.43,-14.114c-7.835,-2.814 -10.395,4.262 -12.545,-0.104c-2.149,-4.366 -5.092,-6.403 -7.2,-3.826c-1.72,2.103 -1.423,8.008 2.397,6.893c2.971,-0.866 6.218,3.803 7.716,6.521c1.499,2.718 -0.702,6.93 8.903,2.405c3.029,-1.428 1.958,11.737 8.984,9.291c7.026,-2.446 13.73,-1.54 16.977,3.064c3.246,4.603 -0.037,12.027 -7.084,11.559c-11.99,-0.794 -6.641,-7.569 -10.765,-9.681c-6.206,-3.178 -9.795,9.088 -17.276,4.142c-4.319,-2.855 -2.082,-11.402 -5.08,-16.348c-5.864,-9.676 -15.305,-5.995 -10.214,0.82c2.977,3.983 7.311,7.879 2.393,10.234c-4.666,2.236 -10.558,-0.929 -9.096,-5.274c2.178,-6.473 -5.61,-4.94 -10.128,-5.414c-4.518,-0.475 -7.681,-2.778 -2.92,-8.674c4.761,-5.896 4.401,7.553 9.316,4.938c4.915,-2.615 9.978,-5.716 6.216,-7.374c-3.762,-1.658 -8.615,-2.013 -5.598,-6.333c3.017,-4.32 8.879,-8.38 8.847,-3.507c-0.031,4.873 1.824,11.065 3.17,7.797c1.346,-3.269 -1.023,-8.021 4.316,-10.941c5.339,-2.92 9.57,8.65 13.425,3.784c5.133,-6.479 9.41,1.373 9.823,-4.896c0.548,-8.332 6.337,-17.016 -4.452,-10.281c-6.669,4.162 -9.6,8.018 -12.949,6.671c-3.349,-1.347 -9.428,0.989 -10.986,2.376c-1.558,1.387 -11.434,-0.728 -14.711,6.651c-3.276,7.379 -9.928,5.591 -11.041,13.159c-1.113,7.568 -0.326,8.983 3.1,11.406c3.426,2.424 7.534,2.788 8.576,6.735c1.042,3.946 3.948,6.762 9.248,5.105c5.299,-1.656 12.207,3.243 15.96,5.246c15.712,8.383 13.487,-0.46 36.834,5.077c12.207,2.895 20.904,-7.291 38.149,-5.011c5.318,0.703 9.324,-1.212 12.064,-3.68c1.644,-1.481 2.833,-3.162 3.577,-4.596c1.984,-3.825 4.59,-3.743 8.705,-5.944c4.116,-2.201 5.625,-4.05 5.602,-8.524c-0.023,-4.474 -0.708,-7.933 -3.878,-12.535c-3.169,-4.602 -12.052,-9.039 -18.814,-10.778c-6.762,-1.74 -8.354,-7.15 -12.819,-6.752c-4.465,0.399 -20.59,-6.702 -21.097,-4.51c-0.848,3.661 -0.661,12.905 3.807,13.157c4.468,0.251 9.252,-5.246 12.851,-1.17c3.598,4.075 9.771,-6.425 10.12,1.818c0.35,8.242 -0.914,11.335 3.586,11.376c4.499,0.041 0.471,-7.626 6.795,-8.554c6.325,-0.927 0.977,9.12 10.296,11.128c6.485,1.398 7.163,15.157 3.216,10.626c-3.946,-4.531 -6.404,-9.357 -10.914,-8.775c-4.511,0.582 -6.925,1.16 -2.823,3.675c4.102,2.516 10.027,2.905 6.637,9.002c-3.39,6.097 -6.761,0.114 -10.552,-6.797c-3.791,-6.912 -3.158,-3.607 -8.171,-6.675c-5.012,-3.069 -4.3,-2.63 -5.7,-8.589c-1.4,-5.958 -7.807,-5.76 -9.934,-1.492c-2.128,4.267 0.488,8.125 4.021,9.313c3.533,1.188 -0.076,10.619 7.124,9.764c7.199,-0.854 11.661,0.482 12.659,6.099c0.997,5.616 -4.069,8.384 -7.983,7.652c-3.914,-0.732 -7.404,-3.906 -10.137,-9.202c-2.734,-5.296 -11.49,2.039 -6.867,5.648c4.622,3.609 2.49,7.085 -3.402,8.031c-5.808,0.933 -6.84,-1.64 -7.844,-9.793c-0.884,-7.176 2.807,-10.605 -6.649,-11.091c-9.456,-0.485 -6.163,-6.437 -2.559,-10.522c3.605,-4.085 13.621,0.106 14.987,5.927c1.366,5.821 -0.741,11.664 3.603,9.503c4.344,-2.161 5.715,-6.273 1.491,-10.735c-4.223,-4.462 -5.288,-5.502 -7.258,-9.055c-1.97,-3.552 -10.162,-3.087 -12.293,-0.906c-2.131,2.182 -5.9,5.109 -5.484,-2.992c0.197,-3.821 7.121,-2.136 7.121,-2.136"/>

</svg>